<svg xmlns="http://www.w3.org/2000/svg" data-name="Layer 1" viewBox="0 0 168 168"><path fill="#0bceb2" d="M105.563 56.952a44.059 44.059 0 1 0 8.485 8.485l-2.843 2.843a40.007 40.007 0 1 1-8.485-8.485Z"/><path fill="#2d4356" d="M137.375 23.472a4 4 0 0 0-4.713.7l-12.76 12.76a4 4 0 0 0-1.095 2.048l-1.41 7.09a3.994 3.994 0 0 0 1.1 3.604L81.58 86.592a6.023 6.023 0 1 0 2.828 2.828l36.916-36.915a3.986 3.986 0 0 0 3.606 1.098l7.09-1.41a4 4 0 0 0 2.048-1.094l12.76-12.76a4 4 0 0 0-3.608-6.752l-4.752.945.945-4.752a4 4 0 0 0-2.038-4.308ZM79 94a2 2 0 1 1 2-2 2 2 0 0 1-2 2Zm42.32-47.15 1.41-7.09L135.49 27l-1.41 7.09ZM144 35.51l-12.76 12.76-7.09 1.41 12.76-12.76Z"/><path fill="#0bceb2" d="M79 80a11.98 11.98 0 0 1 3.097.418l3.148-3.148a16.004 16.004 0 1 0 8.485 8.486l-3.148 3.148A11.993 11.993 0 1 1 79 80Z"/><path fill="#2d4356" d="M94.805 67.71a29.054 29.054 0 1 0 8.485 8.485l-2.892 2.892a25.02 25.02 0 1 1-8.485-8.485Z"/><circle cx="2" cy="149" r="2" fill="#2d4356"/><path fill="#2d4356" d="M11 147H8a2 2 0 0 0 0 4h3a2 2 0 0 0 0-4zm149 0h-3a2 2 0 0 0 0 4h3a2 2 0 0 0 0-4z"/><circle cx="166" cy="149" r="2" fill="#2d4356"/><path fill="#0bceb2" d="M118.154 155h-8.308a2.006 2.006 0 0 0 0 4h8.308a2.006 2.006 0 0 0 0-4zm-60 0h-8.308a2.006 2.006 0 0 0 0 4h8.308a2.006 2.006 0 0 0 0-4zM104 155H64a2 2 0 0 0 0 4h15.94v2H72a2 2 0 0 0 0 4h25a2 2 0 0 0 0-4h-8.94v-2H104a2 2 0 0 0 0-4z"/><path fill="#2d4356" d="M150.721 147h-50.407a58.927 58.927 0 0 0 26.384-89.667l-.98.196a7.933 7.933 0 0 1-3.64-.122l-.185.184A54.987 54.987 0 0 1 79.003 147h-.005a55 55 0 1 1 34.41-97.894l.185-.184a8.01 8.01 0 0 1-.12-3.643l.195-.977A58.978 58.978 0 1 0 57.686 147H17.28a2.017 2.017 0 1 0 0 4H150.72a2.017 2.017 0 1 0 0-4zM49.305 11a3 3 0 1 0-3-3 3.003 3.003 0 0 0 3 3zm0-4.5a1.5 1.5 0 1 1-1.5 1.5 1.501 1.501 0 0 1 1.5-1.5zm69-3.5a2 2 0 1 0 2 2 2.002 2.002 0 0 0-2-2zm0 3a1 1 0 1 1 1-1 1.001 1.001 0 0 1-1 1zm-105 4a2 2 0 1 0 2 2 2.002 2.002 0 0 0-2-2zm0 3a1 1 0 1 1 1-1 1.001 1.001 0 0 1-1 1zm147 26a2 2 0 1 0 2 2 2.002 2.002 0 0 0-2-2zm0 3a1 1 0 1 1 1-1 1.001 1.001 0 0 1-1 1zm-3 41a2 2 0 1 0-2 2 2.002 2.002 0 0 0 2-2zm-3 0a1 1 0 1 1 1 1 1.001 1.001 0 0 1-1-1z"/><path fill="#0bceb2" d="m10.888 68.011 1.487-1.955-.939-.532-.955 2.19h-.031l-.97-2.175-.955.548 1.471 1.909v.031l-2.301-.297v1.064l2.316-.297v.031l-1.486 1.908.891.564 1.018-2.206h.031l.939 2.19.986-.563-1.502-1.878v-.031l2.362.282V67.73l-2.362.312v-.031zM35.081 32.067l-.856 1.099.514.324.586-1.27h.017l.541 1.261.568-.324-.865-1.082v-.018l1.36.163v-.613l-1.36.18v-.018l.856-1.126-.54-.306-.55 1.261h-.018l-.559-1.253-.55.316.847 1.099v.018l-1.325-.171v.613l1.334-.171v.018zM91.305 25.713V24.67l-2.317.307v-.031l1.458-1.918-.921-.522-.936 2.148h-.031l-.951-2.133-.937.538 1.443 1.872v.031l-2.257-.292v1.043l2.272-.291v.031l-1.458 1.872.875.553.998-2.165h.03l.921 2.149.967-.552-1.473-1.842v-.031l2.317.276zM162.748 6.586l1.258-1.655-.795-.45-.807 1.853h-.027l-.82-1.84-.809.464 1.245 1.615v.026l-1.946-.251v.9l1.959-.252v.027l-1.258 1.615.755.477.861-1.867h.026l.795 1.853.834-.476-1.271-1.589v-.027l1.998.239v-.9l-1.998.264v-.026z"/></svg>