<svg xmlns="http://www.w3.org/2000/svg" viewBox="0 0 52 52"><path d="M18.237 17.48c-2.728-.383-6.105-1.38-8.814-.5-3.444 1.116-6.35 4.9-8.908 7.257-.75.691-.273 1.773.552 2.09 2.795 1.07 5.857.49 8.792.496 3.447.006 3.348-.132 3.31 3.269-.015 1.347-.161 2.738.159 4.064 1.3 5.383 8.858 5.779 13.306 5.191l-1.25-1.25c.19 3.88.047 7.67-.499 11.523-.107.759.308 1.619 1.206 1.582 3.943-.158 5.491-4.401 7.378-7.388 1.134-1.795 2.18-3.212 2.248-5.338.017-.537-.19-.806-.229-1.274-.184-2.233.054-2.196 1.846-3.48 3.563-2.556 6.387-6.09 8.985-9.584 2.949-3.964 3.502-8.58 4.434-13.33.442-2.254 2.14-7.14.186-8.993-2.16-2.047-8.003-.453-10.664.016-9.704 1.712-18.45 7.074-22.839 16.09-.7 1.441 1.454 2.71 2.159 1.262 3.594-7.385 10.242-12.168 18.113-14.241 2.564-.676 5.194-1.058 7.838-1.225 2.295-.146 3.02-.837 3.584 1.72.624 2.832-1.498 8.522-2.13 11.317-.916 4.042-3.403 7.073-6.073 10.14-2.268 2.605-5.576 4.156-7.794 6.586-1.354 1.483-.848 1.573-.673 3.4.294 3.056-.121 3.544-1.15 5.672-.786 1.627-3.11 6.065-5.22 6.15l1.206 1.583c.576-4.067.79-8.082.588-12.188-.03-.607-.552-1.342-1.25-1.25-5.344.707-10.416-.495-10.965-6.755-.124-1.419.649-3.792-.465-5.026-2.48-2.746-10.09.146-13.473-1.15l.552 2.089c1.91-1.76 3.86-4.118 6.059-5.475 2.941-1.814 5.954-1.1 9.23-.64 1.574.221 2.254-2.187.665-2.41z"/><path d="M35.316 12.89c.036-1.012 7.155-1.842 4.66 2.73-.678 1.243-1.622 2.582-3.23 1.922-1.407-.578-2.474-2.51-2.189-3.96.31-1.572-2.1-2.244-2.41-.665-.548 2.784 1.184 6.195 4.023 7.095 3.085.979 5.404-1.425 6.43-4.106 1.02-2.661-.135-5.575-3.05-6.17-2.502-.51-6.62-.074-6.734 3.154-.057 1.609 2.444 1.607 2.5 0z"/></svg>